<svg width="31" height="37" viewBox="0 0 31 37" fill="none" xmlns="http://www.w3.org/2000/svg">
<path d="M23.1562 0.125H7.84375C5.81393 0.127431 3.86795 0.934851 2.43265 2.37015C0.997351 3.80545 0.189931 5.75143 0.1875 7.78125V29.2188C0.188311 30.0307 0.511227 30.8092 1.08538 31.3834C1.65954 31.9575 2.43802 32.2804 3.25 32.2812V36.875H6.3125V32.2812H24.6875V36.875H27.75V32.2812C28.5619 32.28 29.3401 31.957 29.9142 31.3829C30.4882 30.8089 30.8113 30.0306 30.8125 29.2188V7.78125C30.8101 5.75143 30.0027 3.80545 28.5674 2.37015C27.1321 0.934851 25.1861 0.127431 23.1562 0.125V0.125ZM27.75 9.3125V18.5H3.25V9.3125H27.75ZM7.84375 3.1875H23.1562C24.1032 3.19031 25.0261 3.48621 25.7982 4.03455C26.5703 4.5829 27.1536 5.3568 27.4682 6.25H3.53175C3.84635 5.3568 4.42974 4.5829 5.20181 4.03455C5.97388 3.48621 6.89677 3.19031 7.84375 3.1875V3.1875ZM3.25 29.2188V21.5625H27.7515L27.7531 29.2188H3.25Z" fill="#42B6F8"/>
</svg>
